<?xml version="1.0" standalone="no"?><svg xmlns:xlink="http://www.w3.org/1999/xlink" xmlns="http://www.w3.org/2000/svg" viewBox="0 0 1000 857.148450281195" preserveAspectRatio="xMaxYMax slice"><g transform="scale(1.39828458447177)"><rect x="0" y="0" width="715.1666666666667" height="613" fill="#ffffff"/><rect x="0" y="0" width="102.16666666666667" height="102.16666666666667" fill="#ffffff"/><rect x="0" y="0" width="51.08" height="51.08" fill="#0c151a"/><polygon points="0,0 51.08,0 0,51.08" fill="#ffca4f"/><rect x="51.08" y="0" width="51.08" height="51.08" fill="#ffca4f"/><polygon points="51.08,0 102.16,0 102.16,51.08" fill="#ffca4f"/><rect x="0" y="51.08" width="51.08" height="51.08" fill="#0c151a"/><polygon points="0,51.08 51.08,102.16 0,102.16" fill="#ffca4f"/><rect x="51.08" y="51.08" width="51.08" height="51.08" fill="#ffca4f"/><polygon points="102.16,51.08 102.16,102.16 51.08,102.16" fill="#ffca4f"/><rect x="102.16666666666667" y="0" width="102.16666666666667" height="102.16666666666667" fill="#ffffff"/><rect x="102.17" y="0" width="51.08" height="51.08" fill="#0c151a"/><path d="M 102.17 0 A 51.08 51.08 0 0 0 153.25 51.08 L 153.25 0" fill="#ffca4f"/><rect x="153.25" y="0" width="51.08" height="51.08" fill="#ffca4f"/><path d="M 153.25 51.08 A 51.08 51.08 0 0 0 204.32999999999998 0 L 153.25 0" fill="#ffca4f"/><rect x="102.17" y="51.08" width="51.08" height="51.08" fill="#0c151a"/><path d="M 102.17 102.16 A 51.08 51.08 0 0 1  153.25 51.08 L 153.25 102.16" fill="#ffca4f"/><rect x="153.25" y="51.08" width="51.08" height="51.08" fill="#ffca4f"/><path d="M 153.25 51.08 A 51.08 51.08 0 0 1 204.32999999999998 102.16 L 153.25 102.16" fill="#ffca4f"/><rect x="204.33333333333334" y="0" width="102.16666666666667" height="102.16666666666667" fill="#ffffff"/><rect x="204.33" y="0" width="51.08" height="51.08" fill="#ffca4f"/><polygon points="204.33,0 255.41000000000003,0 204.33,51.08" fill="#0c151a"/><rect x="255.42" y="0" width="51.08" height="51.08" fill="#ffca4f"/><polygon points="255.42,0 306.5,0 306.5,51.08" fill="#0c151a"/><rect x="204.33" y="51.08" width="51.08" height="51.08" fill="#0c151a"/><polygon points="255.41000000000003,51.08 255.41000000000003,102.16 204.33,102.16" fill="#0c151a"/><rect x="255.42" y="51.08" width="51.08" height="51.08" fill="#0c151a"/><polygon points="255.42,51.08 306.5,102.16 255.42,102.16" fill="#0c151a"/><rect x="306.5" y="0" width="102.17" height="102.17" fill="#ffca4f"/><rect x="306.5" y="0" width="102.17" height="102.17" fill="#ffca4f"/><rect x="408.67" y="0" width="102.17" height="102.17" fill="#ffca4f"/><rect x="408.67" y="0" width="102.17" height="102.17" fill="#0c151a"/><rect x="510.83" y="0" width="102.17" height="102.17" fill="#ffca4f"/><path d="M 510.83 0 A 102.17 102.17 0 0 1  613 102.17 L 510.83 0 A 102.17 102.17 0 0 0 613 102.17" fill="#0c151a"/><rect x="613" y="0" width="102.17" height="102.17" fill="#0c151a"/><rect x="613" y="0" width="102.17" height="102.17" fill="#0c151a"/><rect x="0" y="102.17" width="102.17" height="102.17" fill="#ffca4f"/><polygon points="102.17,102.17 102.17,204.34 0,204.34" fill="#ffca4f"/><rect x="102.16666666666667" y="102.16666666666667" width="102.16666666666667" height="102.16666666666667" fill="#ffffff"/><rect x="102.17" y="102.17" width="51.08" height="51.08" fill="#ffca4f"/><polygon points="102.17,102.17 153.25,102.17 102.17,153.25" fill="#ffca4f"/><rect x="153.25" y="102.17" width="51.08" height="51.08" fill="#0c151a"/><polygon points="153.25,102.17 204.32999999999998,102.17 204.32999999999998,153.25" fill="#0c151a"/><rect x="102.17" y="153.25" width="51.08" height="51.08" fill="#0c151a"/><polygon points="153.25,153.25 153.25,204.32999999999998 102.17,204.32999999999998" fill="#0c151a"/><rect x="153.25" y="153.25" width="51.08" height="51.08" fill="#0c151a"/><polygon points="153.25,153.25 204.32999999999998,204.32999999999998 153.25,204.32999999999998" fill="#ffca4f"/><rect x="204.33333333333334" y="102.16666666666667" width="102.16666666666667" height="102.16666666666667" fill="#ffffff"/><rect x="204.33" y="102.17" width="51.08" height="51.08" fill="#ffca4f"/><path d="M 204.33 102.17 A 51.08 51.08 0 0 1 255.41000000000003 153.25 L 204.33 153.25" fill="#ffca4f"/><rect x="255.42" y="102.17" width="51.08" height="51.08" fill="#ffca4f"/><path d="M 255.42 153.25 A 51.08 51.08 0 0 1  306.5 102.17 L 306.5 153.25" fill="#0c151a"/><rect x="204.33" y="153.25" width="51.08" height="51.08" fill="#0c151a"/><path d="M 204.33 204.32999999999998 A 51.08 51.08 0 0 0 255.41000000000003 153.25 L 204.33 153.25" fill="#0c151a"/><rect x="255.42" y="153.25" width="51.08" height="51.08" fill="#0c151a"/><path d="M 255.42 153.25 A 51.08 51.08 0 0 0 306.5 204.32999999999998 L 306.5 153.25" fill="#0c151a"/><rect x="306.5" y="102.17" width="102.17" height="102.17" fill="#ffca4f"/><polygon points="306.5,102.17 408.67,204.34 306.5,204.34" fill="#0c151a"/><rect x="408.67" y="102.17" width="102.17" height="102.17" fill="#ffca4f"/><polygon points="510.84000000000003,102.17 510.84000000000003,204.34 408.67,204.34" fill="#ffca4f"/><rect x="510.83333333333337" y="102.16666666666667" width="102.16666666666667" height="102.16666666666667" fill="#ffffff"/><rect x="510.83" y="102.17" width="51.08" height="51.08" fill="#ffca4f"/><path d="M 510.83 153.25 A 51.08 51.08 0 0 1 561.91 102.17 L 561.91 114.94 A 38.31 38.31 0 0 0 523.6 153.25" fill="#0c151a"/><rect x="561.92" y="102.17" width="51.08" height="51.08" fill="#0c151a"/><path d="M 561.92 102.17 A 51.08 51.08 0 0 1 613 153.25 L 600.23 153.25 A 38.31 38.31 0 0 0 561.92 114.94" fill="#ffca4f"/><rect x="510.83" y="153.25" width="51.08" height="51.08" fill="#0c151a"/><path d="M 510.83 153.25 A 51.08 51.08 0 0 0 561.91 204.32999999999998 L 561.91 191.56 A 38.31 38.31 0 0 1 523.6 153.25" fill="#ffca4f"/><rect x="561.92" y="153.25" width="51.08" height="51.08" fill="#0c151a"/><path d="M 561.92 204.32999999999998 A 51.08 51.08 0 0 0 613 153.25 L 600.23 153.25 A 38.31 38.31 0 0 1 561.92 191.56" fill="#ffca4f"/><rect x="613" y="102.16666666666667" width="102.16666666666667" height="102.16666666666667" fill="#ffffff"/><rect x="613" y="102.17" width="51.08" height="51.08" fill="#0c151a"/><path d="M 613 153.25 A 51.08 51.08 0 0 1 664.08 102.17 L 664.08 114.94 A 38.31 38.31 0 0 0 625.77 153.25" fill="#0c151a"/><rect x="664.08" y="102.17" width="51.08" height="51.08" fill="#ffca4f"/><path d="M 664.08 102.17 A 51.08 51.08 0 0 1 715.1600000000001 153.25 L 702.3900000000001 153.25 A 38.31 38.31 0 0 0 664.08 114.94" fill="#ffca4f"/><rect x="613" y="153.25" width="51.08" height="51.08" fill="#ffca4f"/><path d="M 613 153.25 A 51.08 51.08 0 0 0 664.08 204.32999999999998 L 664.08 191.56 A 38.31 38.31 0 0 1 625.77 153.25" fill="#ffca4f"/><rect x="664.08" y="153.25" width="51.08" height="51.08" fill="#ffca4f"/><path d="M 664.08 204.32999999999998 A 51.08 51.08 0 0 0 715.1600000000001 153.25 L 702.3900000000001 153.25 A 38.31 38.31 0 0 1 664.08 191.56" fill="#0c151a"/><rect x="0" y="204.33333333333334" width="102.16666666666667" height="102.16666666666667" fill="#ffffff"/><rect x="0" y="204.33" width="51.08" height="51.08" fill="#0c151a"/><path d="M 0 204.33 A 51.08 51.08 0 0 1 51.08 255.41000000000003 L 0 255.41000000000003" fill="#ffca4f"/><rect x="51.08" y="204.33" width="51.08" height="51.08" fill="#ffca4f"/><path d="M 51.08 255.41000000000003 A 51.08 51.08 0 0 1  102.16 204.33 L 102.16 255.41000000000003" fill="#0c151a"/><rect x="0" y="255.42" width="51.08" height="51.08" fill="#0c151a"/><path d="M 0 306.5 A 51.08 51.08 0 0 0 51.08 255.42 L 0 255.42" fill="#ffca4f"/><rect x="51.08" y="255.42" width="51.08" height="51.08" fill="#ffca4f"/><path d="M 51.08 255.42 A 51.08 51.08 0 0 0 102.16 306.5 L 102.16 255.42" fill="#0c151a"/><rect x="102.17" y="204.33" width="102.17" height="102.17" fill="#ffca4f"/><path d="M 102.17 306.5 A 102.17 102.17 0 0 0 204.34 204.33 L 102.17 204.33" fill="#0c151a"/><rect x="204.33" y="204.33" width="102.17" height="102.17" fill="#ffca4f"/><polygon points="204.33,204.33 306.5,204.33 306.5,306.5" fill="#ffca4f"/><rect x="306.5" y="204.33" width="102.17" height="102.17" fill="#0c151a"/><path d="M 306.5 306.5 A 102.17 102.17 0 0 0 408.67 204.33 L 306.5 204.33" fill="#ffca4f"/><rect x="408.67" y="204.33" width="102.17" height="102.17" fill="#ffca4f"/><rect x="408.67" y="204.33" width="102.17" height="102.17" fill="#0c151a"/><rect x="510.83" y="204.33" width="102.17" height="102.17" fill="#ffca4f"/><polygon points="510.83,204.33 613,306.5 510.83,306.5" fill="#0c151a"/><rect x="613" y="204.33333333333334" width="102.16666666666667" height="102.16666666666667" fill="#ffffff"/><rect x="613" y="204.33" width="51.08" height="51.08" fill="#ffca4f"/><polygon points="613,204.33 664.08,204.33 613,255.41000000000003" fill="#0c151a"/><rect x="664.08" y="204.33" width="51.08" height="51.08" fill="#ffca4f"/><polygon points="715.1600000000001,204.33 715.1600000000001,255.41000000000003 664.08,255.41000000000003" fill="#ffca4f"/><rect x="613" y="255.42" width="51.08" height="51.08" fill="#ffca4f"/><polygon points="613,255.42 664.08,255.42 664.08,306.5" fill="#0c151a"/><rect x="664.08" y="255.42" width="51.08" height="51.08" fill="#0c151a"/><polygon points="664.08,255.42 715.1600000000001,306.5 664.08,306.5" fill="#ffca4f"/><rect x="0" y="306.5" width="102.17" height="102.17" fill="#ffca4f"/><path d="M 0 306.5 A 102.17 102.17 0 0 1  102.17 408.67 L 0 306.5 A 102.17 102.17 0 0 0 102.17 408.67" fill="#0c151a"/><rect x="102.16666666666667" y="306.5" width="102.16666666666667" height="102.16666666666667" fill="#ffffff"/><rect x="102.17" y="306.5" width="51.08" height="51.08" fill="#ffca4f"/><path d="M 102.17 306.5 A 51.08 51.08 0 0 0 153.25 357.58 L 153.25 306.5" fill="#0c151a"/><rect x="153.25" y="306.5" width="51.08" height="51.08" fill="#ffca4f"/><path d="M 153.25 357.58 A 51.08 51.08 0 0 0 204.32999999999998 306.5 L 153.25 306.5" fill="#ffca4f"/><rect x="102.17" y="357.58" width="51.08" height="51.08" fill="#0c151a"/><path d="M 102.17 408.65999999999997 A 51.08 51.08 0 0 1  153.25 357.58 L 153.25 408.65999999999997" fill="#0c151a"/><rect x="153.25" y="357.58" width="51.08" height="51.08" fill="#ffca4f"/><path d="M 153.25 357.58 A 51.08 51.08 0 0 1 204.32999999999998 408.65999999999997 L 153.25 408.65999999999997" fill="#ffca4f"/><rect x="204.33333333333334" y="306.5" width="102.16666666666667" height="102.16666666666667" fill="#ffffff"/><rect x="204.33" y="306.5" width="51.08" height="51.08" fill="#ffca4f"/><path d="M 204.33 357.58 A 51.08 51.08 0 0 0 255.41000000000003 306.5 L 204.33 306.5" fill="#0c151a"/><rect x="255.42" y="306.5" width="51.08" height="51.08" fill="#ffca4f"/><path d="M 255.42 306.5 A 51.08 51.08 0 0 0 306.5 357.58 L 306.5 306.5" fill="#0c151a"/><rect x="204.33" y="357.58" width="51.08" height="51.08" fill="#ffca4f"/><path d="M 204.33 357.58 A 51.08 51.08 0 0 1 255.41000000000003 408.65999999999997 L 204.33 408.65999999999997" fill="#0c151a"/><rect x="255.42" y="357.58" width="51.08" height="51.08" fill="#ffca4f"/><path d="M 255.42 408.65999999999997 A 51.08 51.08 0 0 1  306.5 357.58 L 306.5 408.65999999999997" fill="#0c151a"/><rect x="306.5" y="306.5" width="102.17" height="102.17" fill="#0c151a"/><polygon points="408.67,306.5 408.67,408.67 306.5,408.67" fill="#0c151a"/><rect x="408.67" y="306.5" width="102.17" height="102.17" fill="#ffca4f"/><polygon points="408.67,306.5 510.84000000000003,306.5 408.67,408.67" fill="#ffca4f"/><rect x="510.83333333333337" y="306.5" width="102.16666666666667" height="102.16666666666667" fill="#ffffff"/><rect x="510.83" y="306.5" width="51.08" height="51.08" fill="#0c151a"/><polygon points="510.83,306.5 561.91,306.5 510.83,357.58" fill="#0c151a"/><rect x="561.92" y="306.5" width="51.08" height="51.08" fill="#0c151a"/><polygon points="613,306.5 613,357.58 561.92,357.58" fill="#ffca4f"/><rect x="510.83" y="357.58" width="51.08" height="51.08" fill="#0c151a"/><polygon points="510.83,357.58 561.91,357.58 561.91,408.65999999999997" fill="#0c151a"/><rect x="561.92" y="357.58" width="51.08" height="51.08" fill="#ffca4f"/><polygon points="561.92,357.58 613,408.65999999999997 561.92,408.65999999999997" fill="#ffca4f"/><rect x="613" y="306.5" width="102.16666666666667" height="102.16666666666667" fill="#ffffff"/><rect x="613" y="306.5" width="51.08" height="51.08" fill="#0c151a"/><circle cx="638.54" cy="332.04" r="25.54" fill="#ffca4f"/><rect x="664.08" y="306.5" width="51.08" height="51.08" fill="#0c151a"/><rect x="664.08" y="306.5" width="51.08" height="51.08" fill="#0c151a"/><rect x="613" y="357.58" width="51.08" height="51.08" fill="#ffca4f"/><circle cx="638.54" cy="383.12" r="25.54" fill="#ffca4f"/><rect x="664.08" y="357.58" width="51.08" height="51.08" fill="#ffca4f"/><rect x="664.08" y="357.58" width="51.08" height="51.08" fill="#0c151a"/><rect x="0" y="408.6666666666667" width="102.16666666666667" height="102.16666666666667" fill="#ffffff"/><rect x="0" y="408.67" width="51.08" height="51.08" fill="#ffca4f"/><path d="M 0 459.75 A 51.08 51.08 0 0 0 51.08 408.67 L 0 408.67" fill="#0c151a"/><rect x="51.08" y="408.67" width="51.08" height="51.08" fill="#0c151a"/><path d="M 51.08 408.67 A 51.08 51.08 0 0 0 102.16 459.75 L 102.16 408.67" fill="#0c151a"/><rect x="0" y="459.75" width="51.08" height="51.08" fill="#0c151a"/><path d="M 0 459.75 A 51.08 51.08 0 0 1 51.08 510.83 L 0 510.83" fill="#ffca4f"/><rect x="51.08" y="459.75" width="51.08" height="51.08" fill="#ffca4f"/><path d="M 51.08 510.83 A 51.08 51.08 0 0 1  102.16 459.75 L 102.16 510.83" fill="#0c151a"/><rect x="102.16666666666667" y="408.6666666666667" width="102.16666666666667" height="102.16666666666667" fill="#ffffff"/><rect x="102.17" y="408.67" width="51.08" height="51.08" fill="#0c151a"/><polygon points="102.17,408.67 153.25,408.67 102.17,459.75" fill="#ffca4f"/><rect x="153.25" y="408.67" width="51.08" height="51.08" fill="#ffca4f"/><polygon points="153.25,408.67 204.32999999999998,408.67 204.32999999999998,459.75" fill="#0c151a"/><rect x="102.17" y="459.75" width="51.08" height="51.08" fill="#0c151a"/><polygon points="102.17,459.75 153.25,510.83 102.17,510.83" fill="#0c151a"/><rect x="153.25" y="459.75" width="51.08" height="51.08" fill="#0c151a"/><polygon points="204.32999999999998,459.75 204.32999999999998,510.83 153.25,510.83" fill="#ffca4f"/><rect x="204.33333333333334" y="408.6666666666667" width="102.16666666666667" height="102.16666666666667" fill="#ffffff"/><rect x="204.33" y="408.67" width="51.08" height="51.08" fill="#ffca4f"/><path d="M 204.33 408.67 A 51.08 51.08 0 0 0 255.41000000000003 459.75 L 255.41000000000003 408.67" fill="#ffca4f"/><rect x="255.42" y="408.67" width="51.08" height="51.08" fill="#0c151a"/><path d="M 255.42 459.75 A 51.08 51.08 0 0 0 306.5 408.67 L 255.42 408.67" fill="#0c151a"/><rect x="204.33" y="459.75" width="51.08" height="51.08" fill="#ffca4f"/><path d="M 204.33 510.83 A 51.08 51.08 0 0 1  255.41000000000003 459.75 L 255.41000000000003 510.83" fill="#0c151a"/><rect x="255.42" y="459.75" width="51.08" height="51.08" fill="#ffca4f"/><path d="M 255.42 459.75 A 51.08 51.08 0 0 1 306.5 510.83 L 255.42 510.83" fill="#ffca4f"/><rect x="306.5" y="408.67" width="102.17" height="102.17" fill="#ffca4f"/><rect x="306.5" y="408.67" width="102.17" height="102.17" fill="#ffca4f"/><rect x="408.67" y="408.67" width="102.17" height="102.17" fill="#ffca4f"/><rect x="408.67" y="408.67" width="102.17" height="102.17" fill="#0c151a"/><rect x="510.83" y="408.67" width="102.17" height="102.17" fill="#0c151a"/><path d="M 510.83 510.84000000000003 A 102.17 102.17 0 0 0 613 408.67 L 510.83 408.67" fill="#ffca4f"/><rect x="613" y="408.6666666666667" width="102.16666666666667" height="102.16666666666667" fill="#ffffff"/><rect x="613" y="408.67" width="51.08" height="51.08" fill="#ffca4f"/><polygon points="613,408.67 664.08,408.67 613,459.75" fill="#ffca4f"/><rect x="664.08" y="408.67" width="51.08" height="51.08" fill="#0c151a"/><polygon points="664.08,408.67 715.1600000000001,408.67 715.1600000000001,459.75" fill="#ffca4f"/><rect x="613" y="459.75" width="51.08" height="51.08" fill="#0c151a"/><polygon points="664.08,459.75 664.08,510.83 613,510.83" fill="#ffca4f"/><rect x="664.08" y="459.75" width="51.08" height="51.08" fill="#ffca4f"/><polygon points="664.08,459.75 715.1600000000001,510.83 664.08,510.83" fill="#0c151a"/><rect x="0" y="510.83" width="102.17" height="102.17" fill="#ffca4f"/><polygon points="0,510.83 102.17,510.83 102.17,613" fill="#ffca4f"/><rect x="102.17" y="510.83" width="102.17" height="102.17" fill="#0c151a"/><rect x="102.17" y="510.83" width="102.17" height="102.17" fill="#ffca4f"/><rect x="204.33333333333334" y="510.83333333333337" width="102.16666666666667" height="102.16666666666667" fill="#ffffff"/><rect x="204.33" y="510.83" width="51.08" height="51.08" fill="#0c151a"/><polygon points="204.33,510.83 255.41000000000003,510.83 204.33,561.91" fill="#0c151a"/><rect x="255.42" y="510.83" width="51.08" height="51.08" fill="#ffca4f"/><polygon points="306.5,510.83 306.5,561.91 255.42,561.91" fill="#ffca4f"/><rect x="204.33" y="561.92" width="51.08" height="51.08" fill="#0c151a"/><polygon points="204.33,561.92 255.41000000000003,561.92 255.41000000000003,613" fill="#ffca4f"/><rect x="255.42" y="561.92" width="51.08" height="51.08" fill="#0c151a"/><polygon points="255.42,561.92 306.5,613 255.42,613" fill="#ffca4f"/><rect x="306.5" y="510.83" width="102.17" height="102.17" fill="#0c151a"/><polygon points="306.5,510.83 408.67,510.83 408.67,613" fill="#0c151a"/><rect x="408.6666666666667" y="510.83333333333337" width="102.16666666666667" height="102.16666666666667" fill="#ffffff"/><rect x="408.67" y="510.83" width="51.08" height="51.08" fill="#0c151a"/><circle cx="434.21000000000004" cy="536.37" r="25.54" fill="#ffca4f"/><rect x="459.75" y="510.83" width="51.08" height="51.08" fill="#ffca4f"/><rect x="459.75" y="510.83" width="51.08" height="51.08" fill="#0c151a"/><rect x="408.67" y="561.92" width="51.08" height="51.08" fill="#ffca4f"/><circle cx="434.21000000000004" cy="587.4599999999999" r="25.54" fill="#0c151a"/><rect x="459.75" y="561.92" width="51.08" height="51.08" fill="#0c151a"/><rect x="459.75" y="561.92" width="51.08" height="51.08" fill="#ffca4f"/><rect x="510.83" y="510.83" width="102.17" height="102.17" fill="#0c151a"/><polygon points="510.83,510.83 613,510.83 613,613" fill="#ffca4f"/><rect x="613" y="510.83333333333337" width="102.16666666666667" height="102.16666666666667" fill="#ffffff"/><rect x="613" y="510.83" width="51.08" height="51.08" fill="#0c151a"/><polygon points="613,510.83 664.08,510.83 613,561.91" fill="#0c151a"/><rect x="664.08" y="510.83" width="51.08" height="51.08" fill="#0c151a"/><polygon points="715.1600000000001,510.83 715.1600000000001,561.91 664.08,561.91" fill="#ffca4f"/><rect x="613" y="561.92" width="51.08" height="51.08" fill="#0c151a"/><polygon points="613,561.92 664.08,561.92 664.08,613" fill="#ffca4f"/><rect x="664.08" y="561.92" width="51.08" height="51.08" fill="#0c151a"/><polygon points="664.08,561.92 715.1600000000001,613 664.08,613" fill="#0c151a"/></g></svg>